<?xml version="1.0" encoding="UTF-8"?>
<svg width="700pt" height="700pt" version="1.1" viewBox="0 0 700 700" xmlns="http://www.w3.org/2000/svg" xmlns:xlink="http://www.w3.org/1999/xlink">
 <defs>
  <symbol id="t" overflow="visible">
   <path d="m9.375-0.5625c-0.48047 0.25-0.98438 0.4375-1.5156 0.5625-0.52344 0.13281-1.0625 0.20312-1.625 0.20312-1.7109 0-3.0586-0.47266-4.0469-1.4219-0.99219-0.95703-1.4844-2.25-1.4844-3.875 0-1.6328 0.49219-2.9258 1.4844-3.875 0.98828-0.94531 2.3359-1.4219 4.0469-1.4219 0.5625 0 1.1016 0.0625 1.625 0.1875 0.53125 0.125 1.0352 0.32031 1.5156 0.57812v2.1094c-0.49219-0.33203-0.97656-0.57812-1.4531-0.73438-0.46875-0.15625-0.96484-0.23438-1.4844-0.23438-0.9375 0-1.6797 0.30469-2.2188 0.90625-0.53125 0.60547-0.79688 1.4336-0.79688 2.4844 0 1.0547 0.26562 1.8828 0.79688 2.4844 0.53906 0.60547 1.2812 0.90625 2.2188 0.90625 0.51953 0 1.0156-0.078125 1.4844-0.23438 0.47656-0.15625 0.96094-0.39844 1.4531-0.73438z"/>
  </symbol>
  <symbol id="d" overflow="visible">
   <path d="m6.8594-5.5781c-0.21094-0.09375-0.42188-0.16016-0.64062-0.20312-0.21094-0.050781-0.42188-0.078125-0.64062-0.078125-0.625 0-1.1094 0.20312-1.4531 0.60938-0.33594 0.39844-0.5 0.96875-0.5 1.7188v3.5312h-2.4531v-7.6562h2.4531v1.25c0.3125-0.5 0.67188-0.86328 1.0781-1.0938 0.40625-0.22656 0.89453-0.34375 1.4688-0.34375 0.082031 0 0.17188 0.007812 0.26562 0.015625 0.09375 0 0.23438 0.015625 0.42188 0.046875z"/>
  </symbol>
  <symbol id="b" overflow="visible">
   <path d="m8.8125-3.8438v0.6875h-5.7188c0.0625 0.57422 0.26953 1.0078 0.625 1.2969 0.35156 0.29297 0.84766 0.4375 1.4844 0.4375 0.51953 0 1.0508-0.078125 1.5938-0.23438 0.53906-0.15625 1.0938-0.39062 1.6562-0.70312v1.8906c-0.57422 0.21875-1.1523 0.38672-1.7344 0.5-0.57422 0.11328-1.1523 0.17188-1.7344 0.17188-1.3867 0-2.4648-0.35156-3.2344-1.0625-0.76172-0.70703-1.1406-1.6953-1.1406-2.9688 0-1.2383 0.375-2.2188 1.125-2.9375s1.7852-1.0781 3.1094-1.0781c1.207 0 2.1719 0.36719 2.8906 1.0938 0.71875 0.71875 1.0781 1.6875 1.0781 2.9062zm-2.5156-0.8125c0-0.46875-0.13672-0.84375-0.40625-1.125-0.27344-0.28906-0.625-0.4375-1.0625-0.4375-0.46875 0-0.85547 0.13672-1.1562 0.40625-0.29297 0.26172-0.47656 0.64844-0.54688 1.1562z"/>
  </symbol>
  <symbol id="k" overflow="visible">
   <path d="m4.6094-3.4531c-0.51172 0-0.89844 0.089844-1.1562 0.26562-0.26172 0.17969-0.39062 0.43359-0.39062 0.76562 0 0.3125 0.10156 0.55859 0.3125 0.73438 0.20703 0.17969 0.5 0.26562 0.875 0.26562 0.45703 0 0.84375-0.16406 1.1562-0.5 0.3125-0.33203 0.46875-0.75 0.46875-1.25v-0.28125zm3.7344-0.92188v4.375h-2.4688v-1.1406c-0.32422 0.46875-0.69531 0.8125-1.1094 1.0312-0.40625 0.20703-0.90234 0.3125-1.4844 0.3125-0.80469 0-1.4492-0.22656-1.9375-0.6875-0.49219-0.46875-0.73438-1.0703-0.73438-1.8125 0-0.89453 0.30469-1.5508 0.92188-1.9688 0.61328-0.42578 1.582-0.64062 2.9062-0.64062h1.4375v-0.1875c0-0.38281-0.15234-0.66406-0.45312-0.84375-0.30469-0.1875-0.77734-0.28125-1.4219-0.28125-0.53125 0-1.0234 0.054688-1.4688 0.15625-0.44922 0.10547-0.87109 0.26562-1.2656 0.48438v-1.875c0.53125-0.125 1.0547-0.21875 1.5781-0.28125 0.53125-0.070313 1.0625-0.10938 1.5938-0.10938 1.3828 0 2.3789 0.27734 2.9844 0.82812 0.61328 0.54297 0.92188 1.4219 0.92188 2.6406z"/>
  </symbol>
  <symbol id="c" overflow="visible">
   <path d="m3.8438-9.8281v2.1719h2.5312v1.75h-2.5312v3.25c0 0.35547 0.066406 0.59375 0.20312 0.71875 0.14453 0.125 0.42969 0.1875 0.85938 0.1875h1.25v1.75h-2.0938c-0.96875 0-1.6562-0.19531-2.0625-0.59375-0.39844-0.40625-0.59375-1.0938-0.59375-2.0625v-3.25h-1.2188v-1.75h1.2188v-2.1719z"/>
  </symbol>
  <symbol id="j" overflow="visible">
   <path d="m6.3906-6.5312v-4.1094h2.4531v10.641h-2.4531v-1.1094c-0.34375 0.44922-0.71875 0.78125-1.125 1-0.40625 0.20703-0.875 0.3125-1.4062 0.3125-0.9375 0-1.7148-0.375-2.3281-1.125-0.60547-0.75-0.90625-1.7188-0.90625-2.9062 0-1.1758 0.30078-2.1406 0.90625-2.8906 0.61328-0.75 1.3906-1.125 2.3281-1.125 0.53125 0 1 0.10938 1.4062 0.32812 0.40625 0.21094 0.78125 0.53906 1.125 0.98438zm-1.625 4.9531c0.53125 0 0.92969-0.19141 1.2031-0.57812 0.28125-0.38281 0.42188-0.94141 0.42188-1.6719 0-0.72656-0.14062-1.2812-0.42188-1.6562-0.27344-0.38281-0.67188-0.57812-1.2031-0.57812-0.51172 0-0.90625 0.19531-1.1875 0.57812-0.27344 0.375-0.40625 0.92969-0.40625 1.6562 0 0.73047 0.13281 1.2891 0.40625 1.6719 0.28125 0.38672 0.67578 0.57812 1.1875 0.57812z"/>
  </symbol>
  <symbol id="f" overflow="visible">
   <path d="m5.25-1.5781c0.51953 0 0.91406-0.19141 1.1875-0.57812 0.28125-0.38281 0.42188-0.94141 0.42188-1.6719 0-0.72656-0.14062-1.2812-0.42188-1.6562-0.27344-0.38281-0.66797-0.57812-1.1875-0.57812-0.52344 0-0.92188 0.19531-1.2031 0.57812-0.28125 0.38672-0.42188 0.9375-0.42188 1.6562 0 0.73047 0.14062 1.2891 0.42188 1.6719 0.28125 0.38672 0.67969 0.57812 1.2031 0.57812zm-1.625-4.9531c0.33203-0.44531 0.70312-0.77344 1.1094-0.98438 0.41406-0.21875 0.89062-0.32812 1.4219-0.32812 0.94531 0 1.7227 0.375 2.3281 1.125 0.60156 0.75 0.90625 1.7148 0.90625 2.8906 0 1.1875-0.30469 2.1562-0.90625 2.9062-0.60547 0.75-1.3828 1.125-2.3281 1.125-0.53125 0-1.0078-0.10547-1.4219-0.3125-0.40625-0.21875-0.77734-0.55078-1.1094-1v1.1094h-2.4531v-10.641h2.4531z"/>
  </symbol>
  <symbol id="e" overflow="visible">
   <path d="m0.17188-7.6562h2.4531l2.0469 5.1875 1.75-5.1875h2.4531l-3.2188 8.375c-0.32422 0.85156-0.70312 1.4453-1.1406 1.7812-0.42969 0.34375-0.99609 0.51562-1.7031 0.51562h-1.4062v-1.5938h0.76562c0.41406 0 0.71875-0.070313 0.90625-0.20312 0.1875-0.13672 0.33203-0.375 0.4375-0.71875l0.0625-0.20312z"/>
  </symbol>
  <symbol id="i" overflow="visible">
   <path d="m8.3906-9.8906v2.1719c-0.5625-0.25-1.1094-0.4375-1.6406-0.5625-0.53125-0.13281-1.0391-0.20312-1.5156-0.20312-0.625 0-1.0898 0.089844-1.3906 0.26562-0.30469 0.16797-0.45312 0.43359-0.45312 0.79688 0 0.28125 0.097656 0.5 0.29688 0.65625 0.20703 0.14844 0.57812 0.27344 1.1094 0.375l1.125 0.23438c1.1328 0.23047 1.9414 0.57812 2.4219 1.0469 0.47656 0.46094 0.71875 1.1172 0.71875 1.9688 0 1.125-0.33594 1.9648-1 2.5156-0.66797 0.55469-1.6875 0.82812-3.0625 0.82812-0.64844 0-1.2969-0.0625-1.9531-0.1875-0.64844-0.125-1.2969-0.30469-1.9531-0.54688v-2.2188c0.65625 0.34375 1.2852 0.60547 1.8906 0.78125 0.60156 0.17969 1.1914 0.26562 1.7656 0.26562 0.57031 0 1.0078-0.09375 1.3125-0.28125 0.30078-0.19531 0.45312-0.47266 0.45312-0.82812 0-0.32031-0.10547-0.56641-0.3125-0.73438-0.19922-0.17578-0.60938-0.33203-1.2344-0.46875l-1.0156-0.23438c-1.0234-0.21875-1.7734-0.56641-2.25-1.0469-0.46875-0.47656-0.70312-1.1172-0.70312-1.9219 0-1.0195 0.32812-1.8008 0.98438-2.3438 0.65625-0.55078 1.5977-0.82812 2.8281-0.82812 0.5625 0 1.1406 0.042969 1.7344 0.125 0.59375 0.085937 1.207 0.21094 1.8438 0.375z"/>
  </symbol>
  <symbol id="h" overflow="visible">
   <path d="m8.2656-6.3906c0.3125-0.46875 0.67969-0.82812 1.1094-1.0781 0.42578-0.25 0.89453-0.375 1.4062-0.375 0.875 0 1.5391 0.27344 2 0.8125 0.46875 0.54297 0.70312 1.3359 0.70312 2.375v4.6562h-2.4688v-4c0.007813-0.050781 0.015625-0.10938 0.015625-0.17188v-0.28125c0-0.53906-0.078125-0.92969-0.23438-1.1719-0.15625-0.25-0.41797-0.375-0.78125-0.375-0.46094 0-0.82031 0.19531-1.0781 0.57812-0.25 0.38672-0.38281 0.9375-0.39062 1.6562v3.7656h-2.4531v-4c0-0.84375-0.074219-1.3828-0.21875-1.625-0.14844-0.25-0.40625-0.375-0.78125-0.375-0.46875 0-0.83594 0.19531-1.0938 0.57812-0.25 0.38672-0.375 0.9375-0.375 1.6562v3.7656h-2.4688v-7.6562h2.4688v1.125c0.30078-0.4375 0.64453-0.76562 1.0312-0.98438 0.39453-0.21875 0.82812-0.32812 1.2969-0.32812 0.51953 0 0.98438 0.13281 1.3906 0.39062 0.40625 0.25 0.71094 0.60547 0.92188 1.0625z"/>
  </symbol>
  <symbol id="a" overflow="visible">
   <path d="m4.8125-6.0938c-0.54297 0-0.95312 0.19922-1.2344 0.59375-0.28125 0.38672-0.42188 0.94531-0.42188 1.6719 0 0.74219 0.14062 1.3086 0.42188 1.7031 0.28125 0.38672 0.69141 0.57812 1.2344 0.57812 0.53906 0 0.95312-0.19141 1.2344-0.57812 0.28125-0.39453 0.42188-0.96094 0.42188-1.7031 0-0.72656-0.14062-1.2852-0.42188-1.6719-0.28125-0.39453-0.69531-0.59375-1.2344-0.59375zm0-1.75c1.3203 0 2.3516 0.35938 3.0938 1.0781 0.73828 0.71094 1.1094 1.6875 1.1094 2.9375 0 1.2617-0.37109 2.25-1.1094 2.9688-0.74219 0.71094-1.7734 1.0625-3.0938 1.0625-1.3125 0-2.3438-0.35156-3.0938-1.0625-0.74219-0.71875-1.1094-1.707-1.1094-2.9688 0-1.25 0.36719-2.2266 1.1094-2.9375 0.75-0.71875 1.7812-1.0781 3.0938-1.0781z"/>
  </symbol>
  <symbol id="s" overflow="visible">
   <path d="m1.1719-10.641h2.4531v10.641h-2.4531z"/>
  </symbol>
  <symbol id="g" overflow="visible">
   <path d="m8.875-4.6562v4.6562h-2.4688v-3.5625c0-0.66406-0.015625-1.125-0.046875-1.375-0.023437-0.25-0.070313-0.42969-0.14062-0.54688-0.09375-0.16406-0.22656-0.28906-0.39062-0.375-0.16797-0.09375-0.35547-0.14062-0.5625-0.14062-0.51172 0-0.91406 0.19922-1.2031 0.59375-0.29297 0.39844-0.4375 0.94531-0.4375 1.6406v3.7656h-2.4531v-7.6562h2.4531v1.125c0.36328-0.44531 0.75391-0.77344 1.1719-0.98438 0.41406-0.21875 0.875-0.32812 1.375-0.32812 0.88281 0 1.5547 0.27344 2.0156 0.8125 0.45703 0.54297 0.6875 1.3359 0.6875 2.375z"/>
  </symbol>
  <symbol id="r" overflow="visible">
   <path d="m6.2188-10.641v1.6094h-1.3594c-0.34375 0-0.58594 0.0625-0.71875 0.1875-0.13672 0.125-0.20312 0.34375-0.20312 0.65625v0.53125h2.0781v1.75h-2.0781v5.9062h-2.4531v-5.9062h-1.2188v-1.75h1.2188v-0.53125c0-0.83203 0.22656-1.4453 0.6875-1.8438 0.46875-0.40625 1.1914-0.60938 2.1719-0.60938z"/>
  </symbol>
  <symbol id="q" overflow="visible">
   <path d="m8.875-4.6562v4.6562h-2.4688v-3.5625c0-0.66406-0.015625-1.125-0.046875-1.375-0.023437-0.25-0.070313-0.42969-0.14062-0.54688-0.09375-0.16406-0.22656-0.28906-0.39062-0.375-0.16797-0.09375-0.35547-0.14062-0.5625-0.14062-0.51172 0-0.91406 0.19922-1.2031 0.59375-0.29297 0.39844-0.4375 0.94531-0.4375 1.6406v3.7656h-2.4531v-10.641h2.4531v4.1094c0.36328-0.44531 0.75391-0.77344 1.1719-0.98438 0.41406-0.21875 0.875-0.32812 1.375-0.32812 0.88281 0 1.5547 0.27344 2.0156 0.8125 0.45703 0.54297 0.6875 1.3359 0.6875 2.375z"/>
  </symbol>
  <symbol id="p" overflow="visible">
   <path d="m1.2812-10.203h2.9375l3.7188 7v-7h2.5v10.203h-2.9375l-3.7188-7v7h-2.5z"/>
  </symbol>
  <symbol id="o" overflow="visible">
   <path d="m1.0938-2.9844v-4.6719h2.4688v0.76562c0 0.41797-0.007812 0.9375-0.015625 1.5625v1.25c0 0.61719 0.015625 1.0586 0.046875 1.3281 0.03125 0.27344 0.082031 0.46875 0.15625 0.59375 0.10156 0.15625 0.23438 0.28125 0.39062 0.375 0.16406 0.085938 0.35156 0.125 0.5625 0.125 0.50781 0 0.91016-0.19141 1.2031-0.57812 0.28906-0.39453 0.4375-0.94141 0.4375-1.6406v-3.7812h2.4531v7.6562h-2.4531v-1.1094c-0.36719 0.44922-0.75781 0.78125-1.1719 1-0.41797 0.20703-0.87109 0.3125-1.3594 0.3125-0.88672 0-1.5625-0.26953-2.0312-0.8125-0.46094-0.53906-0.6875-1.332-0.6875-2.375z"/>
  </symbol>
  <symbol id="n" overflow="visible">
   <path d="m1.2812-10.203h4.375c1.3008 0 2.2969 0.28906 2.9844 0.85938 0.69531 0.57422 1.0469 1.3984 1.0469 2.4688 0 1.0742-0.35156 1.8984-1.0469 2.4688-0.6875 0.57422-1.6836 0.85938-2.9844 0.85938h-1.7344v3.5469h-2.6406zm2.6406 1.9062v2.8438h1.4531c0.50781 0 0.89844-0.11719 1.1719-0.35938 0.28125-0.25 0.42188-0.60156 0.42188-1.0625 0-0.45703-0.14062-0.80469-0.42188-1.0469-0.27344-0.25-0.66406-0.375-1.1719-0.375z"/>
  </symbol>
  <symbol id="m" overflow="visible">
   <path d="m1.1719-7.6562h2.4531v7.5156c0 1.0312-0.25 1.8125-0.75 2.3438-0.49219 0.53906-1.1992 0.8125-2.125 0.8125h-1.2188v-1.5938h0.42188c0.46875 0 0.78516-0.10938 0.95312-0.32812 0.17578-0.21094 0.26562-0.62109 0.26562-1.2344zm0-2.9844h2.4531v2h-2.4531z"/>
  </symbol>
  <symbol id="l" overflow="visible">
   <path d="m7.3594-7.4219v2c-0.33594-0.22656-0.66797-0.39453-1-0.5-0.33594-0.11328-0.68359-0.17188-1.0469-0.17188-0.67969 0-1.2109 0.20312-1.5938 0.60938-0.375 0.39844-0.5625 0.94922-0.5625 1.6562 0 0.71875 0.1875 1.2812 0.5625 1.6875 0.38281 0.39844 0.91406 0.59375 1.5938 0.59375 0.38281 0 0.75-0.054687 1.0938-0.17188 0.34375-0.11328 0.66016-0.28516 0.95312-0.51562v2.0156c-0.38672 0.13672-0.77734 0.23828-1.1719 0.3125-0.38672 0.070312-0.77734 0.10938-1.1719 0.10938-1.3867 0-2.4688-0.35156-3.25-1.0625-0.77344-0.70703-1.1562-1.6953-1.1562-2.9688 0-1.2578 0.38281-2.2422 1.1562-2.9531 0.78125-0.70703 1.8633-1.0625 3.25-1.0625 0.39453 0 0.78516 0.039062 1.1719 0.10938 0.39453 0.074219 0.78516 0.17969 1.1719 0.3125z"/>
  </symbol>
 </defs>
 <g>
  <path d="m370.72 385c-6.7188-10.641-16.801-19.039-27.719-24.922-5.3203-2.5195-10.641-4.7617-15.961-6.1602 5.3203-3.9219 10.359-8.1211 14.559-13.16 5.0391-5.8789 9.5195-12.32 12.879-19.32 1.6797-3.0781 2.8008-6.4414 3.9219-9.5195 1.3984 0.55859 2.8008 1.1211 4.4805 1.1211 1.6797 0 3.3594 0 5.0391-0.55859 1.6797-0.55859 3.3594-1.3984 4.7617-2.2383 2.8008-1.9609 4.4805-4.1992 6.1602-6.4414 0.83984-1.1211 1.3984-1.9609 1.9609-3.0781 0.55859-1.1211 1.3984-2.5195 1.9609-4.1992 0.55859-1.9609 1.3984-4.7617 0.83984-8.1211-0.28125-1.6797-1.1211-3.6406-1.9609-5.3203-1.1211-1.6797-2.5195-3.0781-3.9219-3.9219-3.0781-1.9609-5.8789-2.5195-8.6797-2.5195-2.8008 0-4.7617 0.55859-6.7188 1.1211-1.6797 0.55859-1.1211 4.7617 0.55859 9.2383 0.83984 1.9609 1.6797 3.9219 2.5195 5.3203 0 0.28125 0 0.28125-0.28125 0.55859-0.28125 0.83984-0.83984 1.9609-1.1211 2.8008-0.55859 1.6797-1.1211 3.0781-1.3984 4.1992-0.28125 0.55859-0.28125 1.1211-0.55859 1.6797-0.28125 0.55859-0.55859 1.1211-0.83984 1.3984 0.28125-1.1211 0.55859-2.5195 0.55859-3.6406 0.28125-1.9609 0.28125-3.6406 0-5.3203-0.28125-1.6797-0.83984-3.0781-1.6797-4.1992-1.3984-2.5195-3.6406-3.9219-6.1602-3.9219s-4.7617 1.3984-6.4414 3.0781c-0.83984 0.83984-1.6797 1.9609-1.9609 3.3594-0.55859 1.1211-1.1211 2.5195-1.3984 3.9219-0.28125 3.0781-1.3984 5.8789-1.9609 8.9609-1.1211 2.8008-1.9609 5.8789-3.3594 8.3984-2.5195 5.6016-5.8789 10.641-10.078 15.121-8.1211 9.2383-18.762 15.961-30.52 19.602-19.039 5.6016-40.879 3.0781-58.238-8.3984-8.6797-5.6016-16.238-12.879-21.84-22.121-5.6016-8.9609-9.5195-19.32-10.922-30.238 0-0.83984-0.55859-1.3984-0.83984-1.6797v-0.55859c0-0.55859 0.28125-1.1211 0.28125-1.6797 3.0781 1.1211 6.4414 1.6797 9.8008 1.3984 5.0391-0.55859 9.5195-2.5195 13.441-4.7617 7.8398-5.0391 13.719-12.039 17.922-19.602 1.6797-3.0781 3.0781-6.1602 4.1992-9.2383 0.28125 0.55859 0.83984 0.83984 1.1211 1.3984 1.6797 1.9609 3.0781 3.9219 4.7617 5.8789 3.6406 3.3594 7 7.2812 11.199 10.078 9.5195 7.5586 20.16 13.441 31.922 16.801 4.1992 1.1211 8.3984 2.2383 12.879 2.5195 10.078 1.1211 20.441 0.28125 29.961-2.5195 5.8789-1.6797 11.48-4.4805 16.52-7.5586 1.6797-1.1211 0-4.4805-1.9609-4.1992-14.281 4.1992-28.559 3.6406-41.719 0-13.16-3.6406-25.48-10.641-36.121-19.039-3.3594-2.5195-6.1602-5.6016-9.2383-8.3984l-3.9219-4.7617c-0.55859-0.83984-1.3984-1.6797-1.9609-2.5195l-1.6797-2.5195c-5.0391-6.7188-8.3984-14.281-10.922-22.121-0.83984-2.8008-3.6406-4.7617-7.2812-5.0391 2.8008-1.9609 5.8789-3.0781 8.6797-4.7617l4.7617-1.6797 2.2383-0.83984 2.5195-0.55859c10.641-2.8008 22.121-3.0781 33.039-1.3984 10.922 1.6797 21.559 5.8789 30.52 12.32 18.199 13.16 30.801 35.281 35 59.078 0.55859 3.0781 4.7617 2.8008 4.4805-0.55859 0-12.602-2.5195-25.48-7.5586-37.52-5.0391-12.039-12.602-23.238-22.961-32.48-10.359-8.9609-23.238-15.121-36.68-17.922-13.441-2.8008-27.441-2.5195-40.879 0.83984l-2.8008 0.84375-3.0781 1.1211c-1.9609 0.83984-3.9219 1.3984-5.8789 2.2383-3.9219 1.9609-7.8398 3.6406-11.199 6.1602-7.2812 4.4805-13.719 10.078-19.039 16.52-10.922 12.602-18.199 28.281-21.84 44.238-0.28125 1.9609-0.55859 3.9219-0.55859 5.6016 0.28125 1.6797 0.55859 3.3594 1.1211 4.7617 1.3984 2.8008 3.3594 4.4805 5.8789 4.7617s5.0391-0.83984 6.7188-2.8008c0.83984-1.1211 1.6797-2.2383 2.5195-3.6406 0.83984-1.3984 1.3984-2.8008 1.6797-4.4805 3.0781-13.441 9.2383-26.32 18.199-36.398 1.3984-1.6797 3.0781-3.3594 4.7617-5.0391 0 0.83984 0 1.6797 0.28125 2.2383 1.1211 3.3594 2.2383 6.4414 3.6406 9.5195v0.28125c0 3.3594-0.83984 7.2812-1.9609 11.199-1.3984 3.9219-3.0781 7.8398-5.0391 11.48-3.3594 6.1602-7 12.039-11.199 16.801-2.2383 2.5195-4.4805 4.7617-7 6.1602-1.9609 1.3984-4.1992 1.9609-7 2.2383-0.28125-2.2383-1.1211-3.9219-1.9609-3.9219l-5.0391-0.55859-2.5195-0.28125c-1.6797-0.28125-3.3594-0.28125-5.0391-0.28125-3.3594 0-6.4414 1.1211-8.9609 3.3594-2.5195 2.2383-4.1992 5.0391-4.7617 8.3984-0.28125 1.3984-0.55859 2.8008-0.55859 4.1992v1.9609 1.3984c0 1.6797 0.28125 3.6406 0.83984 5.6016 0.83984 3.6406 2.5195 7.8398 5.6016 10.922 3.0781 3.3594 7.8398 5.0391 11.48 5.3203s7-0.83984 9.8008-1.9609c1.1211 3.9219 2.2383 7.8398 3.9219 11.48 5.0391 11.199 12.879 21 22.398 28.84 1.1211 0.83984 2.2383 1.6797 3.0781 2.5195-12.879 4.1992-25.762 11.48-35.559 22.121-10.641 11.762-16.238 26.602-19.32 40.879-3.0781 14.281-3.9219 28.559-4.1992 42.559-0.28125 14 0 27.719 0.28125 41.441 0.28125 12.879 4.1992 23.52 9.2383 23.52 5.0391 0 8.9609-10.641 8.6797-23.801-0.28125-13.719-0.55859-27.441-0.28125-40.602 0.28125-13.441 1.1211-26.602 3.6406-39.199 2.8008-12.32 7.2812-24.078 15.121-32.762 7.8398-8.6797 18.48-14.559 30.52-17.922 5.8789-1.6797 12.32-2.8008 18.48-3.6406 0.28125 11.762 4.7617 21.84 9.8008 30.52v0.28125c-0.83984 1.3984-1.3984 2.5195-1.9609 3.9219-1.3984 2.8008-2.5195 5.3203-3.3594 7.8398-1.1211 2.5195-1.9609 5.3203-2.5195 7.8398-2.5195 8.6797-4.1992 17.359-5.3203 26.039-1.1211 8.6797-1.6797 17.359-1.9609 26.039-0.28125 17.359 0.83984 34.719 5.3203 51.52 0.55859 2.2383 4.4805 1.3984 4.4805-0.55859 0-16.52 2.5195-33.32 4.7617-49.559 1.1211-8.1211 2.5195-16.238 4.1992-24.359 1.6797-8.1211 3.3594-15.961 5.6016-23.52 0.83984-2.2383 1.3984-4.7617 2.2383-6.7188 1.6797 2.8008 3.0781 5.6016 4.1992 8.3984 5.8789 13.719 9.2383 29.398 11.762 44.801 2.2383 15.68 3.6406 31.641 2.5195 47.879 0 2.2383 3.6406 3.0781 4.4805 1.1211 5.6016-15.961 7.5586-33.039 7.5586-50.121-0.28125-17.078-2.8008-34.16-9.8008-50.961-3.0781-7-6.7188-12.879-10.359-18.48 3.3594-4.1992 7.2812-8.9609 9.5195-15.398 1.9609-5.3203 2.8008-10.922 2.8008-16.52h1.1211c10.359 1.1211 20.719 3.6406 29.961 7.8398 8.9609 4.1992 17.078 10.359 22.68 18.48 5.8789 8.1211 9.8008 17.922 12.32 28.281s3.9219 21.281 4.7617 32.199c1.6797 22.121 1.6797 44.52 2.8008 66.922 0.28125 5.8789 4.1992 5.8789 4.4805 0 1.1211-22.398 3.0781-44.52 3.0781-67.199 0-11.48-0.83984-22.961-2.8008-34.441-2.8164-12.316-6.457-24.078-13.457-34.438zm-1.1172-94.641m-86.242 91.281c-0.55859-1.1211-0.83984-2.2383-1.3984-3.3594-1.1211-3.0781-1.9609-6.1602-2.2383-9.2383 2.5195 0 5.0391 0 7.5586-0.28125 0 2.8008-0.55859 5.6016-1.6797 8.1211-0.5625 1.6758-1.4023 3.0781-2.2422 4.7578zm-85.68-78.402c-1.6797-1.3984-2.2383-2.8008-2.5195-3.9219s-0.28125-2.8008-0.28125-4.7617v-3.0781-0.83984 0l7.2812 0.83984c0 5.0391 0.28125 10.078 1.3984 14.84-2.2383-0.83594-4.4805-1.6758-5.8789-3.0781z"/>
  <path d="m218.68 425.04c-1.3984 18.762-2.8008 37.238-3.0781 56-0.28125 11.48-0.83984 22.68-1.9609 33.879-0.28125 2.5195 1.9609 5.0391 5.3203 5.6016 3.3594 0.55859 6.1602-1.3984 6.4414-4.1992 1.1211-11.762 1.9609-23.238 2.2383-34.719 0.55859-19.039-1.1211-38.078-5.8789-56.559-0.28125-1.4023-3.082-1.1211-3.082-0.003907z"/>
  <path d="m347.48 423.36c-0.28125-1.3984-3.0781-0.83984-3.0781 0.55859 0 19.879-0.28125 39.48 0.55859 59.359 0.55859 12.039 0.83984 24.078 0.83984 36.121 0 2.8008 2.5195 5.3203 5.8789 5.3203 3.3594 0 6.1602-2.2383 6.1602-5.3203 0-12.32-0.28125-24.359-0.83984-36.68-0.83984-19.879-3.6406-40.039-9.5195-59.359z"/>
  <path d="m300.44 224c-5.8789-5.8789-11.199-12.602-16.238-19.602-1.1211-1.6797-4.4805-1.3984-7 0.55859-2.8008 1.9609-3.9219 4.7617-2.5195 6.7188 5.3203 7.2812 10.922 14.281 17.359 21 5.3203 5.3203 11.48 10.078 18.48 13.441 7 3.3594 14.84 5.0391 22.398 4.7617 1.1211 0 1.3984-2.8008 0.55859-3.0781-13.719-5.3203-23.52-14-33.039-23.801z"/>
  <path d="m524.16 415.8c-0.83984-13.16-3.3594-26.602-10.078-39.48-3.3594-6.4414-7.8398-12.32-13.16-17.359-5.3203-5.0391-11.762-8.9609-18.199-11.762-3.0781-1.3984-6.1602-2.5195-9.2383-3.3594 11.762-8.9609 20.719-21.281 25.199-35.281 1.1211 0.28125 1.9609 0.55859 3.0781 0.83984 1.6797 0 3.0781 0 4.7617-0.55859 1.6797-0.55859 3.0781-1.3984 4.1992-2.2383 1.1211-0.83984 2.2383-1.9609 3.3594-2.8008 0.83984-0.83984 1.3984-1.6797 2.2383-2.8008 1.3984-1.9609 2.5195-3.6406 3.6406-6.7188 0.55859-1.9609 1.1211-4.1992 0.55859-7.5586-0.28125-1.6797-0.83984-3.3594-1.9609-5.0391-1.1211-1.6797-2.5195-2.8008-3.9219-3.9219-2.8008-1.9609-5.6016-2.5195-8.1211-2.5195-1.1211 0-2.2383 0.28125-3.3594 0.28125-1.1211 0.28125-2.2383 0.28125-2.8008 0.55859-0.28125 0-0.28125 0.28125-0.55859 0.55859 0-1.3984-1.3984-3.0781-2.5195-2.8008-12.602 3.3594-24.922 2.8008-36.398-0.55859-11.48-3.3594-22.121-9.2383-31.359-16.801-11.199-9.2383-19.879-21.559-24.078-35-0.55859-1.9609-2.8008-3.6406-5.6016-4.1992 5.0391-3.0781 10.359-5.3203 15.961-6.4414 8.3984-1.9609 17.641-2.2383 26.602-0.55859 14.281 2.5195 27.16 9.5195 37.52 20.719 10.078 11.199 17.359 25.48 21 41.441 0.55859 1.9609 4.4805 1.9609 4.4805-0.28125 0.83984-17.078-3.6406-35-14-49.84-5.0391-7.5586-11.762-14.281-19.879-19.32-7.8398-5.0391-16.801-8.3984-26.039-10.078-11.199-1.9609-22.398-1.6797-33.602 0.83984-11.199 2.5195-21.84 7.8398-30.52 15.398-4.1992 3.6406-4.1992 9.5195-0.55859 12.879 2.2383 1.9609 5.0391 2.8008 7.5586 2.5195 0 0.83984 0 1.6797 0.28125 2.5195 0.83984 2.8008 1.9609 5.6016 3.0781 8.1211 0 2.2383-0.28125 5.3203-1.3984 8.3984-1.6797 5.6016-2.2383 12.039-2.2383 20.16 0 0.55859 3.3594 2.8008 3.9219 2.5195 5.0391-2.2383 9.2383-5.8789 12.32-10.078 4.1992 5.3203 9.2383 10.359 14.559 14.559 11.48 9.2383 25.199 15.398 39.762 17.078 7.2812 0.83984 14.559 0.55859 21.84-1.1211 7-1.6797 13.719-4.4805 19.32-8.3984l0.28125-0.28125c-0.28125 1.6797 0.28125 4.4805 1.3984 7.8398 0.55859 1.1211 0.83984 2.2383 1.3984 3.3594 0 0.55859-0.55859 1.1211-0.83984 2.2383-0.83984-3.9219-4.1992-6.7188-8.3984-6.4414-3.0781 0-5.8789 1.3984-7.5586 3.0781-1.1211 1.1211-1.6797 2.2383-1.6797 3.6406-1.6797 15.68-10.641 30.52-23.52 39.48-21 15.121-51.801 16.238-75.879-0.55859-0.28125 0-0.28125-0.28125-0.55859-0.28125-0.55859 0-1.3984 0.28125-1.9609 0.83984-0.83984 0.83984-1.1211 1.9609-0.55859 2.8008 2.8008 3.6406 5.8789 6.7188 9.5195 9.5195-1.9609 0.55859-3.9219 1.1211-5.6016 1.9609-3.9219 1.3984-7 3.9219-8.3984 6.7188-1.6797 2.8008-1.6797 5.3203-0.55859 7.5586 1.3984 2.2383 3.6406 3.3594 6.4414 3.6406 2.8008 0.28125 5.6016 0.28125 8.6797-0.83984 8.6797-3.0781 17.922-4.7617 27.719-5.3203 1.1211 0.28125 2.2383 0.55859 3.3594 0.55859 7.2812 1.1211 14.84 0.83984 22.398-0.55859 10.922 0.83984 21.281 2.8008 30.52 7 10.078 4.4805 18.199 11.48 23.801 21s8.3984 21 10.359 33.039c0.83984 5.8789 1.6797 12.039 2.2383 18.199 0.55859 6.1602 0.83984 12.602 1.1211 18.762 0.83984 12.602 1.6797 25.199 2.8008 37.801 0.28125 3.3594 4.1992 3.3594 4.4805 0 1.1211-12.602 2.2383-25.199 3.0781-37.801 0.28125-6.4414 1.1211-12.602 1.1211-19.039-0.29297-7.2695-0.29297-13.711-0.85156-20.43z"/>
  <path d="m494.76 431.48c-1.3984-8.6797-3.3594-17.359-6.1602-25.762-0.28125-1.1211-3.0781-0.55859-3.0781 0.55859-0.28125 8.6797-0.28125 17.359-0.55859 26.039 0 8.6797 0.28125 17.359 0.28125 26.039l0.55859 31.641c0 2.5195 2.8008 4.4805 6.1602 4.7617 3.3594 0 5.8789-1.9609 5.8789-4.4805l-0.55859-32.199c-0.003906-9.2383-0.84375-17.918-2.5234-26.598z"/>
  <path d="m333.76 168.28c12.602 2.5195 26.039 1.6797 38.078-3.0781 6.1602-2.2383 11.762-5.3203 17.078-9.2383 2.8008-1.9609 5.0391-4.1992 7.2812-6.1602 2.2383-2.2383 4.4805-4.7617 6.4414-7.2812 3.9219-5.0391 7-10.922 9.5195-16.801 2.2383-6.1602 3.6406-12.32 4.4805-18.762 0.55859-6.4414 0.28125-12.879-0.83984-19.32-1.3984-6.4414-3.0781-12.602-6.1602-18.199-1.3984-2.8008-3.0781-5.0391-5.0391-7-1.9609-1.9609-3.9219-3.3594-5.6016-4.4805-3.9219-1.9609-7-1.9609-8.6797-0.28125-1.6797 1.6797-1.9609 5.0391-1.1211 8.3984 0.28125 1.6797 0.83984 3.6406 1.6797 5.6016 0.55859 1.9609 1.6797 3.9219 2.5195 5.8789 2.2383 4.1992 3.6406 8.9609 4.4805 13.441 0.83984 4.7617 1.1211 9.5195 0.55859 14.281-0.55859 4.7617-1.6797 9.5195-3.3594 14-1.9609 4.4805-3.9219 8.6797-7 12.32-1.3984 1.9609-3.0781 3.6406-4.7617 5.3203-1.6797 1.6797-3.3594 3.3594-5.6016 4.7617-3.6406 3.0781-8.1211 5.0391-12.602 7-8.9609 3.3594-18.762 4.1992-28.281 2.2383-14.832-3.3633-28.551-13.723-35.551-28-3.6406-7-5.6016-14.84-5.6016-22.961 0-8.1211 1.6797-15.961 4.7617-23.52 6.7188-14.84 20.441-26.32 36.68-30.52 16.238-3.9219 34.719-0.28125 48.719 10.641 1.6797 1.3984 3.3594 1.3984 4.1992 0.83984 0.83984-0.83984 0.55859-2.2383-1.1211-4.1992-6.7188-6.7188-15.121-12.039-24.359-15.121-9.2383-3.0781-19.32-3.9219-29.398-2.5195-19.879 3.0781-38.359 15.68-47.879 34.16-4.7617 9.2383-7.5586 19.32-7.8398 29.961-0.28125 10.359 1.9609 21 6.4414 30.52 8.6758 19.316 27.156 33.875 47.879 38.078z"/>
  <path d="m361.76 73.359-14.281 14.281-14.281-14.281c-1.3984-1.3984-5.3203 0.55859-8.6797 3.9219-3.6406 3.6406-5.3203 7.2812-3.9219 8.6797l15.121 15.121c-4.7617 6.1602-8.6797 12.879-12.32 20.16-0.28125 0.83984 2.5195 3.6406 3.3594 3.3594 7.5586-3.6406 14.559-8.1211 20.719-12.879 6.4414 5.0391 13.16 9.2383 20.719 12.879 0.83984 0.28125 3.6406-2.5195 3.3594-3.3594-3.3594-7.2812-7.5586-14-12.32-20.16l15.121-15.121c1.3984-1.3984-0.55859-5.3203-3.9219-8.6797-3.3555-3.6406-7.2734-5.3203-8.6719-3.9219z"/>
  <use x="70" y="602" xlink:href="#t"/>
  <use x="80.273438" y="602" xlink:href="#d"/>
  <use x="87.179688" y="602" xlink:href="#b"/>
  <use x="96.675781" y="602" xlink:href="#k"/>
  <use x="106.121094" y="602" xlink:href="#c"/>
  <use x="112.8125" y="602" xlink:href="#b"/>
  <use x="122.308594" y="602" xlink:href="#j"/>
  <use x="137.203125" y="602" xlink:href="#f"/>
  <use x="147.226562" y="602" xlink:href="#e"/>
  <use x="161.226562" y="602" xlink:href="#i"/>
  <use x="171.308594" y="602" xlink:href="#e"/>
  <use x="180.433594" y="602" xlink:href="#h"/>
  <use x="195.023438" y="602" xlink:href="#f"/>
  <use x="205.042969" y="602" xlink:href="#a"/>
  <use x="214.664062" y="602" xlink:href="#s"/>
  <use x="219.460937" y="602" xlink:href="#a"/>
  <use x="229.078125" y="602" xlink:href="#g"/>
  <use x="70" y="616" xlink:href="#r"/>
  <use x="76.089844" y="616" xlink:href="#d"/>
  <use x="82.996094" y="616" xlink:href="#a"/>
  <use x="92.613281" y="616" xlink:href="#h"/>
  <use x="112.074219" y="616" xlink:href="#c"/>
  <use x="118.769531" y="616" xlink:href="#q"/>
  <use x="128.734375" y="616" xlink:href="#b"/>
  <use x="143.105469" y="616" xlink:href="#p"/>
  <use x="154.820312" y="616" xlink:href="#a"/>
  <use x="164.4375" y="616" xlink:href="#o"/>
  <use x="174.40625" y="616" xlink:href="#g"/>
  <use x="189.246094" y="616" xlink:href="#n"/>
  <use x="199.507812" y="616" xlink:href="#d"/>
  <use x="206.410156" y="616" xlink:href="#a"/>
  <use x="216.03125" y="616" xlink:href="#m"/>
  <use x="220.828125" y="616" xlink:href="#b"/>
  <use x="230.324219" y="616" xlink:href="#l"/>
  <use x="238.621094" y="616" xlink:href="#c"/>
 </g>
</svg>
