<?xml version="1.0" encoding="UTF-8"?>
<svg width="700pt" height="700pt" version="1.1" viewBox="0 0 700 700" xmlns="http://www.w3.org/2000/svg">
 <g>
  <path d="m148.64 353.52-15.91 90.168h-0.003907c-1.2344 7.0273 1.0352 14.219 6.0859 19.266 5.0469 5.043 12.238 7.3086 19.27 6.0703l90.148-15.91c4.4258-0.77344 8.5-2.8945 11.672-6.0781l225.91-225.91 55.695-55.688c7.3672-7.3906 11.504-17.402 11.504-27.84-0.003907-10.438-4.1406-20.449-11.512-27.836l-49.5-49.504c-7.5-7.1602-17.469-11.156-27.84-11.156s-20.34 3.9961-27.84 11.156l-55.688 55.688-225.95 225.95c-3.1562 3.168-5.2656 7.2266-6.0391 11.629zm306.25-274.7v0.003906c5.1875-4.957 13.359-4.957 18.551 0l49.5 49.5c5.1094 5.1289 5.1094 13.426 0 18.559l-46.406 46.406-68.062-68.059zm-280.63 280.62 215.66-215.66 68.059 68.059-215.65 215.65-82.656 14.586z"/>
  <path d="m126.88 507.5c0 7.2461 5.8789 13.125 13.125 13.125h385c7.25 0 13.125-5.875 13.125-13.125s-5.875-13.125-13.125-13.125h-385c-7.2461 0-13.125 5.8789-13.125 13.125z"/>
  <path d="m122.5 100.62h21.875v21.875c0 7.25 5.875 13.125 13.125 13.125s13.125-5.875 13.125-13.125v-21.875h21.875c7.25 0 13.125-5.875 13.125-13.125s-5.875-13.125-13.125-13.125h-21.875v-21.875c0-7.25-5.875-13.125-13.125-13.125s-13.125 5.875-13.125 13.125v21.875h-21.875c-7.25 0-13.125 5.875-13.125 13.125s5.875 13.125 13.125 13.125z"/>
  <path d="m280 74.375c-7.2461 0-13.125 5.8789-13.125 13.125v21.875h-21.875c-7.25 0-13.125 5.875-13.125 13.125s5.875 13.125 13.125 13.125h21.875v21.875c0 7.25 5.875 13.125 13.125 13.125s13.125-5.875 13.125-13.125v-21.875h21.875c7.25 0 13.125-5.875 13.125-13.125s-5.875-13.125-13.125-13.125h-21.875v-21.875c0-7.2461-5.8789-13.125-13.125-13.125z"/>
  <path d="m455 468.12c7.2461 0 13.125-5.8789 13.125-13.125v-21.875h21.875c7.25 0 13.125-5.875 13.125-13.125s-5.875-13.125-13.125-13.125h-21.875v-21.875c0-7.25-5.875-13.125-13.125-13.125s-13.125 5.875-13.125 13.125v21.875h-21.875c-7.25 0-13.125 5.875-13.125 13.125s5.875 13.125 13.125 13.125h21.875v21.875c0 7.2461 5.8789 13.125 13.125 13.125z"/>
  <path d="m577.5 301.88h-21.875v-21.875c0-7.25-5.875-13.125-13.125-13.125s-13.125 5.875-13.125 13.125v21.875h-21.875c-7.25 0-13.125 5.875-13.125 13.125s5.875 13.125 13.125 13.125h21.875v21.875c0 7.25 5.875 13.125 13.125 13.125s13.125-5.875 13.125-13.125v-21.875h21.875c7.25 0 13.125-5.875 13.125-13.125s-5.875-13.125-13.125-13.125z"/>
 </g>
</svg>
