<?xml version="1.0" encoding="UTF-8"?>
<svg width="700pt" height="700pt" version="1.1" viewBox="0 0 700 700" xmlns="http://www.w3.org/2000/svg">
 <g>
  <path d="m145.94 251.03c3.7695 1.7812 8.2266 3.3906 12.652 5.0117-14.855 73.961-5.6445 185.59 30.117 227.58 28.152 33.223 88.445 53.047 161.29 53.047s133.14-19.824 161.26-53c35.797-42.031 45.012-153.67 30.152-227.63 4.4219-1.6172 8.875-3.2266 12.641-5.0078h0.003907c9.5-5.7734 17.242-14.039 22.387-23.895 5.1445-9.8594 7.4922-20.938 6.7891-32.035 3.2266-26.016-7.1055-51.867-27.367-68.496-32.574-15.215-67.648-24.359-103.5-26.98 2.6562-19.793-3.5938-39.742-17.07-54.484-33.496-29.051-137.13-29.059-170.53-0.03125-13.5 14.738-19.77 34.703-17.113 54.516-35.863 2.6211-70.941 11.762-103.52 26.98-20.254 16.637-30.578 42.484-27.355 68.496-0.70312 11.098 1.6445 22.172 6.7852 32.031 5.1406 9.8555 12.883 18.121 22.383 23.898zm329.77 202.42c-18.539 21.863-69.055 36.551-125.7 36.551s-107.16-14.688-125.73-36.594c-21.723-25.504-33.609-118.58-20.586-185.39h-0.003907c48.309 8.4336 97.285 12.469 146.32 12.055 49.039 0.41406 98.016-3.6211 146.32-12.059 13.02 66.809 1.1289 159.89-20.621 185.44zm-180.27-373.18c16.203-13.613 93.492-13.57 108.03-1.2656 1.8125 5.2773 2.582 10.859 2.2617 16.43-37.156-2.1836-74.406-2.1836-111.56 0.003906-0.027344-5.082 0.39844-10.16 1.2695-15.168zm-127.77 86.621c33.082-14.289 68.543-22.277 104.56-23.547 0.875 0.14062 1.7578 0.22656 2.6445 0.26172 0.69531-0.078124 1.2461-0.48047 1.918-0.61719 23.719-1.9883 48.945-3.0781 74.277-3.0781 24.426 0 48.648 1.0195 71.477 2.8672 0.84375 0.32812 1.7031 0.60547 2.582 0.82812 0.86328 0.089844 1.7344 0.13672 2.6055 0.13672 0.74219 0 1.3945-0.32812 2.125-0.39844 34.934 1.2578 69.328 8.9883 101.44 22.797 6.5352 13.543 7.1523 29.195 1.707 43.215-62.504 28.477-250.36 31.41-338.03 9.582-0.59375-0.23438-1.0156-0.69922-1.6289-0.88672l0.003907-0.003906c-0.89062-0.14844-1.7852-0.23828-2.6836-0.27344-7.9688-1.9883-15.754-4.6367-23.285-7.918-5.6758-13.777-5.5703-29.262 0.28516-42.965z"/>
  <path d="m303.33 315c-6.1875 0-12.121 2.457-16.496 6.8359-4.3789 4.375-6.8359 10.309-6.8359 16.496v70c0 8.3359 4.4492 16.039 11.668 20.207 7.2188 4.168 16.113 4.168 23.332 0 7.2188-4.168 11.668-11.871 11.668-20.207v-70c0-6.1875-2.4609-12.121-6.8359-16.496-4.375-4.3789-10.309-6.8359-16.5-6.8359z"/>
  <path d="m396.67 431.67c6.1875 0 12.121-2.4609 16.496-6.8359 4.3789-4.375 6.8359-10.309 6.8359-16.5v-70c0-8.3359-4.4492-16.039-11.668-20.207s-16.113-4.168-23.332 0-11.668 11.871-11.668 20.207v70c0 6.1914 2.4609 12.125 6.8359 16.5s10.309 6.8359 16.5 6.8359z"/>
 </g>
</svg>
