<?xml version="1.0" encoding="UTF-8"?>
<svg width="700pt" height="700pt" version="1.1" viewBox="0 0 700 700" xmlns="http://www.w3.org/2000/svg" xmlns:xlink="http://www.w3.org/1999/xlink">
 <defs>
  <symbol id="r" overflow="visible">
   <path d="m28.422-1.7031c-1.4688 0.76172-3 1.3359-4.5938 1.7188-1.5859 0.38281-3.2344 0.57812-4.9531 0.57812-5.1562 0-9.2422-1.4375-12.25-4.3125-3.0117-2.875-4.5156-6.7812-4.5156-11.719s1.5039-8.8438 4.5156-11.719c3.0078-2.8828 7.0938-4.3281 12.25-4.3281 1.7188 0 3.3672 0.19531 4.9531 0.57812 1.5938 0.38672 3.125 0.96094 4.5938 1.7188v6.4062c-1.4805-1.0078-2.9375-1.75-4.375-2.2188s-2.9492-0.70312-4.5312-0.70312c-2.8438 0-5.0859 0.91406-6.7188 2.7344-1.625 1.8242-2.4375 4.3359-2.4375 7.5312 0 3.1992 0.8125 5.7109 2.4375 7.5312 1.6328 1.8242 3.875 2.7344 6.7188 2.7344 1.582 0 3.0938-0.23438 4.5312-0.70312 1.4375-0.47656 2.8945-1.2188 4.375-2.2188z"/>
  </symbol>
  <symbol id="c" overflow="visible">
   <path d="m20.797-16.875c-0.64844-0.3125-1.293-0.53516-1.9375-0.67188-0.64844-0.14453-1.293-0.21875-1.9375-0.21875-1.9062 0-3.375 0.60938-4.4062 1.8281-1.0234 1.2188-1.5312 2.9688-1.5312 5.25v10.688h-7.4219v-23.203h7.4219v3.8125c0.94531-1.5195 2.0352-2.6289 3.2656-3.3281 1.2383-0.69531 2.7227-1.0469 4.4531-1.0469 0.25 0 0.51953 0.011719 0.8125 0.03125 0.28906 0.023437 0.71094 0.070313 1.2656 0.14062z"/>
  </symbol>
  <symbol id="e" overflow="visible">
   <path d="m26.719-11.656v2.1094h-17.328c0.17578 1.7422 0.80078 3.0469 1.875 3.9219 1.082 0.86719 2.5859 1.2969 4.5156 1.2969 1.5625 0 3.1602-0.22656 4.7969-0.6875 1.6328-0.46875 3.3164-1.1719 5.0469-2.1094v5.7188c-1.75 0.65625-3.5078 1.1523-5.2656 1.4844-1.75 0.34375-3.5078 0.51562-5.2656 0.51562-4.1992 0-7.4609-1.0625-9.7812-3.1875-2.3242-2.1328-3.4844-5.1289-3.4844-8.9844 0-3.7812 1.1406-6.7539 3.4219-8.9219 2.2812-2.1758 5.4258-3.2656 9.4375-3.2656 3.6445 0 6.5625 1.1016 8.75 3.2969 2.1875 2.1992 3.2812 5.1367 3.2812 8.8125zm-7.625-2.4688c0-1.4062-0.41406-2.5391-1.2344-3.4062-0.8125-0.86328-1.8867-1.2969-3.2188-1.2969-1.4375 0-2.6055 0.40625-3.5 1.2188-0.89844 0.80469-1.4531 1.9648-1.6719 3.4844z"/>
  </symbol>
  <symbol id="b" overflow="visible">
   <path d="m13.969-10.438c-1.5547 0-2.7188 0.26562-3.5 0.79688-0.78125 0.52344-1.1719 1.293-1.1719 2.3125 0 0.9375 0.3125 1.6719 0.9375 2.2031 0.63281 0.53125 1.5078 0.79688 2.625 0.79688 1.3945 0 2.5664-0.5 3.5156-1.5 0.95703-1 1.4375-2.2539 1.4375-3.7656v-0.84375zm11.328-2.7969v13.234h-7.4844v-3.4375c-0.99219 1.4062-2.1094 2.4336-3.3594 3.0781-1.2422 0.63281-2.75 0.95312-4.5312 0.95312-2.4062 0-4.3594-0.69531-5.8594-2.0938-1.4922-1.4062-2.2344-3.2227-2.2344-5.4531 0-2.7266 0.92969-4.7266 2.7969-6 1.875-1.2695 4.8125-1.9062 8.8125-1.9062h4.375v-0.57812c0-1.1641-0.46484-2.0195-1.3906-2.5625-0.92969-0.55078-2.3711-0.82812-4.3281-0.82812-1.5859 0-3.0625 0.16406-4.4375 0.48438-1.3672 0.3125-2.6328 0.78906-3.7969 1.4219v-5.6562c1.582-0.38281 3.1758-0.67578 4.7812-0.875 1.6016-0.20703 3.2031-0.3125 4.7969-0.3125 4.1875 0 7.207 0.82812 9.0625 2.4844 1.8633 1.6484 2.7969 4.3281 2.7969 8.0469z"/>
  </symbol>
  <symbol id="a" overflow="visible">
   <path d="m11.656-29.781v6.5781h7.6562v5.3125h-7.6562v9.8281c0 1.0859 0.21094 1.8203 0.64062 2.2031 0.4375 0.375 1.2891 0.5625 2.5625 0.5625h3.7969v5.2969h-6.3594c-2.9297 0-5-0.60938-6.2188-1.8281-1.2188-1.2266-1.8281-3.3047-1.8281-6.2344v-9.8281h-3.6875v-5.3125h3.6875v-6.5781z"/>
  </symbol>
  <symbol id="j" overflow="visible">
   <path d="m19.344-19.797v-12.438h7.4531v32.234h-7.4531v-3.3594c-1.0234 1.3672-2.1484 2.3672-3.375 3-1.2305 0.63281-2.6523 0.95312-4.2656 0.95312-2.8555 0-5.2031-1.1328-7.0469-3.4062-1.8359-2.2695-2.75-5.1914-2.75-8.7656 0-3.5703 0.91406-6.4922 2.75-8.7656 1.8438-2.2812 4.1914-3.4219 7.0469-3.4219 1.6016 0 3.0195 0.32422 4.25 0.96875 1.2383 0.64844 2.3672 1.6484 3.3906 3zm-4.8906 15.016c1.5938 0 2.8047-0.57812 3.6406-1.7344 0.83203-1.1641 1.25-2.8516 1.25-5.0625 0-2.207-0.41797-3.8906-1.25-5.0469-0.83594-1.1641-2.0469-1.75-3.6406-1.75-1.5742 0-2.7773 0.58594-3.6094 1.75-0.83594 1.1562-1.25 2.8398-1.25 5.0469 0 2.2109 0.41406 3.8984 1.25 5.0625 0.83203 1.1562 2.0352 1.7344 3.6094 1.7344z"/>
  </symbol>
  <symbol id="d" overflow="visible">
   <path d="m15.906-4.7812c1.5938 0 2.8047-0.57812 3.6406-1.7344 0.83203-1.1641 1.25-2.8516 1.25-5.0625 0-2.207-0.41797-3.8906-1.25-5.0469-0.83594-1.1641-2.0469-1.75-3.6406-1.75-1.5859 0-2.8047 0.58594-3.6562 1.75-0.84375 1.168-1.2656 2.8516-1.2656 5.0469 0 2.1992 0.42188 3.8828 1.2656 5.0469 0.85156 1.168 2.0703 1.75 3.6562 1.75zm-4.9219-15.016c1.0195-1.3516 2.1484-2.3516 3.3906-3 1.2383-0.64453 2.6641-0.96875 4.2812-0.96875 2.8633 0 5.2109 1.1406 7.0469 3.4219 1.832 2.2734 2.75 5.1953 2.75 8.7656 0 3.5742-0.91797 6.4961-2.75 8.7656-1.8359 2.2734-4.1836 3.4062-7.0469 3.4062-1.6172 0-3.043-0.32031-4.2812-0.95312-1.2422-0.64453-2.3711-1.6445-3.3906-3v3.3594h-7.4219v-32.234h7.4219z"/>
  </symbol>
  <symbol id="i" overflow="visible">
   <path d="m0.51562-23.203h7.4219l6.2344 15.75 5.2969-15.75h7.4219l-9.7656 25.406c-0.98047 2.5703-2.1211 4.375-3.4219 5.4062-1.3047 1.0312-3.0273 1.5469-5.1719 1.5469h-4.2812v-4.875h2.3125c1.2578 0 2.1758-0.19922 2.75-0.59375 0.57031-0.39844 1.0156-1.1172 1.3281-2.1562l0.21875-0.64062z"/>
  </symbol>
  <symbol id="h" overflow="visible">
   <path d="m22.656-5.6406h-12.469l-1.9688 5.6406h-8.0156l11.453-30.922h9.5156l11.453 30.922h-8.0156zm-10.469-5.7344h8.4688l-4.2344-12.297z"/>
  </symbol>
  <symbol id="g" overflow="visible">
   <path d="m26.891-14.125v14.125h-7.4688v-10.812c0-2-0.046875-3.3789-0.14062-4.1406-0.085938-0.75781-0.23438-1.3203-0.45312-1.6875-0.29297-0.47656-0.6875-0.85156-1.1875-1.125-0.49219-0.26953-1.0547-0.40625-1.6875-0.40625-1.5547 0-2.7734 0.60156-3.6562 1.7969-0.875 1.1992-1.3125 2.8555-1.3125 4.9688v11.406h-7.4219v-23.203h7.4219v3.4062c1.1133-1.3516 2.2969-2.3516 3.5469-3 1.2578-0.64453 2.6484-0.96875 4.1719-0.96875 2.6758 0 4.707 0.82422 6.0938 2.4688 1.3945 1.6484 2.0938 4.0391 2.0938 7.1719z"/>
  </symbol>
  <symbol id="f" overflow="visible">
   <path d="m14.609-18.453c-1.6484 0-2.9023 0.59375-3.7656 1.7812-0.86719 1.1797-1.2969 2.875-1.2969 5.0938s0.42969 3.9219 1.2969 5.1094c0.86328 1.1797 2.1172 1.7656 3.7656 1.7656 1.6133 0 2.8477-0.58594 3.7031-1.7656 0.85156-1.1875 1.2812-2.8906 1.2812-5.1094s-0.42969-3.9141-1.2812-5.0938c-0.85547-1.1875-2.0898-1.7812-3.7031-1.7812zm0-5.3125c3.9883 0 7.1016 1.0781 9.3438 3.2344 2.25 2.1562 3.375 5.1406 3.375 8.9531s-1.125 6.7969-3.375 8.9531c-2.2422 2.1484-5.3555 3.2188-9.3438 3.2188-4.0117 0-7.1484-1.0703-9.4062-3.2188-2.25-2.1562-3.375-5.1406-3.375-8.9531s1.125-6.7969 3.375-8.9531c2.2578-2.1562 5.3945-3.2344 9.4062-3.2344z"/>
  </symbol>
  <symbol id="q" overflow="visible">
   <path d="m16.281-18.953c1.2578 0 2.2109-0.27344 2.8594-0.82812 0.64453-0.55078 0.96875-1.3633 0.96875-2.4375 0-1.0703-0.32422-1.8828-0.96875-2.4375-0.64844-0.5625-1.6016-0.84375-2.8594-0.84375h-4.4062v6.5469zm0.26562 13.531c1.6016 0 2.8047-0.33594 3.6094-1.0156 0.8125-0.67578 1.2188-1.6953 1.2188-3.0625 0-1.3438-0.40234-2.3477-1.2031-3.0156-0.80469-0.67578-2.0117-1.0156-3.625-1.0156h-4.6719v8.1094zm7.4219-11.125c1.707 0.5 3.0312 1.4219 3.9688 2.7656 0.9375 1.3359 1.4062 2.9766 1.4062 4.9219 0 2.9805-1.0117 5.2031-3.0312 6.6719-2.0117 1.4609-5.0742 2.1875-9.1875 2.1875h-13.234v-30.922h11.969c4.3008 0 7.4141 0.65234 9.3438 1.9531 1.9258 1.293 2.8906 3.3672 2.8906 6.2188 0 1.5117-0.35547 2.7969-1.0625 3.8594-0.71094 1.0547-1.7305 1.8359-3.0625 2.3438z"/>
  </symbol>
  <symbol id="p" overflow="visible">
   <path d="m0.64062-23.203h7.4219l5.7812 16.031 5.75-16.031h7.4375l-9.1406 23.203h-8.1406z"/>
  </symbol>
  <symbol id="o" overflow="visible">
   <path d="m18.828-32.234v4.875h-4.0938c-1.0547 0-1.7891 0.19531-2.2031 0.57812-0.41797 0.375-0.625 1.0312-0.625 1.9688v1.6094h6.3438v5.3125h-6.3438v17.891h-7.4062v-17.891h-3.6875v-5.3125h3.6875v-1.6094c0-2.5312 0.70312-4.3984 2.1094-5.6094 1.4062-1.207 3.5859-1.8125 6.5469-1.8125z"/>
  </symbol>
  <symbol id="n" overflow="visible">
   <path d="m26.891-14.125v14.125h-7.4688v-10.766c0-2.0312-0.046875-3.4258-0.14062-4.1875-0.085938-0.75781-0.23438-1.3203-0.45312-1.6875-0.29297-0.47656-0.6875-0.85156-1.1875-1.125-0.49219-0.26953-1.0547-0.40625-1.6875-0.40625-1.5547 0-2.7734 0.60156-3.6562 1.7969-0.875 1.1992-1.3125 2.8555-1.3125 4.9688v11.406h-7.4219v-32.234h7.4219v12.438c1.1133-1.3516 2.2969-2.3516 3.5469-3 1.2578-0.64453 2.6484-0.96875 4.1719-0.96875 2.6758 0 4.707 0.82422 6.0938 2.4688 1.3945 1.6484 2.0938 4.0391 2.0938 7.1719z"/>
  </symbol>
  <symbol id="m" overflow="visible">
   <path d="m3.8906-30.922h8.9062l11.25 21.203v-21.203h7.5625v30.922h-8.9062l-11.25-21.219v21.219h-7.5625z"/>
  </symbol>
  <symbol id="l" overflow="visible">
   <path d="m3.8906-30.922h13.234c3.9375 0 6.957 0.875 9.0625 2.625 2.1016 1.7422 3.1562 4.2266 3.1562 7.4531 0 3.25-1.0547 5.75-3.1562 7.5-2.1055 1.7422-5.125 2.6094-9.0625 2.6094h-5.25v10.734h-7.9844zm7.9844 5.7812v8.625h4.4062c1.5391 0 2.7344-0.375 3.5781-1.125s1.2656-1.8164 1.2656-3.2031c0-1.375-0.42188-2.4297-1.2656-3.1719-0.84375-0.75-2.0391-1.125-3.5781-1.125z"/>
  </symbol>
  <symbol id="k" overflow="visible">
   <path d="m3.5625-23.203h7.4219v22.781c0 3.1133-0.75 5.4883-2.25 7.125-1.4922 1.6328-3.6523 2.4531-6.4844 2.4531h-3.6562v-4.875h1.2812c1.4062 0 2.3672-0.32031 2.8906-0.95312 0.53125-0.63672 0.79688-1.8867 0.79688-3.75zm0-9.0312h7.4219v6.0469h-7.4219z"/>
  </symbol>
 </defs>
 <g>
  <path d="m470.58 525.46h-190.37c-16.367 0-29.695-13.32-29.695-29.695v-30.012h249.76v30.012c0 16.375-13.32 29.695-29.695 29.695zm-190.37-499.2h190.37c16.375 0 29.695 13.32 29.695 29.695v20.77h-249.76v-20.77c0-16.375 13.328-29.695 29.695-29.695zm-29.695 372.48h19.277v-25.457h-19.277v-271.1h249.76v338.12h-249.76zm220.06-397.93h-190.37c-30.41 0-55.148 24.742-55.148 55.152v439.81c0 30.41 24.738 55.152 55.148 55.152h190.37c30.41 0 55.152-24.742 55.152-55.152v-439.81c0-30.41-24.742-55.152-55.152-55.152z" fill-rule="evenodd"/>
  <path d="m406.74 67.184c7 0 12.727-5.7266 12.727-12.727s-5.7266-12.73-12.727-12.73-12.727 5.7305-12.727 12.73 5.7266 12.727 12.727 12.727" fill-rule="evenodd"/>
  <path d="m349.24 67.184h21.16c7 0 12.727-5.7266 12.727-12.727s-5.7266-12.73-12.727-12.73h-21.16c-7 0-12.73 5.7305-12.73 12.73s5.7305 12.727 12.73 12.727" fill-rule="evenodd"/>
  <path d="m387.37 482.94h-21.16c-7 0-12.727 5.7266-12.727 12.727s5.7266 12.727 12.727 12.727h21.16c7 0 12.727-5.7266 12.727-12.727s-5.7266-12.727-12.727-12.727" fill-rule="evenodd"/>
  <path d="m380.01 179.11c0-9.8047 7.9844-17.789 17.793-17.789 9.8086 0 17.801 7.9844 17.801 17.789 0 5.8242-8.043 23.227-17.801 40.898-9.7578-17.672-17.793-35.074-17.793-40.898zm17.793 78.859c4.4023 0 8.5-2.2812 10.816-6.0234 7.6133-12.285 32.438-53.828 32.438-72.836 0-23.848-19.414-43.246-43.254-43.246-23.852 0-43.25 19.398-43.25 43.246 0 19.008 24.82 60.551 32.422 72.836 2.3242 3.7422 6.4141 6.0234 10.828 6.0234z" fill-rule="evenodd"/>
  <path d="m136.45 367.53c-19.836-34.145-43.172-79.707-43.172-96.355 0-23.809 19.363-43.172 43.172-43.172s43.172 19.363 43.172 43.172c0 16.648-23.336 62.211-43.172 96.355zm0-164.98c-37.844 0-68.625 30.793-68.625 68.625 0 32.836 48.152 112.24 57.809 127.82 2.3164 3.7422 6.4141 6.0234 10.816 6.0234 4.4141 0 8.5039-2.2812 10.82-6.0234 9.6523-15.586 57.805-94.988 57.805-127.82 0-37.832-30.781-68.625-68.625-68.625z" fill-rule="evenodd"/>
  <path d="m286.76 398.74h33.941v-25.457h-33.941z" fill-rule="evenodd"/>
  <path d="m346.16 257.97h22.055v-25.453h-22.055c-5.8633 0-11.531 1.2305-16.832 3.6641l10.605 23.141c1.9492-0.89453 4.0469-1.3516 6.2266-1.3516" fill-rule="evenodd"/>
  <path d="m184.95 398.74h33.938v-25.457h-33.938z" fill-rule="evenodd"/>
  <path d="m333.27 265.4-21.984-12.82c-3.582 6.1406-5.4727 13.16-5.4727 20.293 0 9.5234 3.375 18.77 9.5117 26.043l19.453-16.418c-1.6016-1.9023-3.5117-5.1094-3.5117-9.625 0-2.6367 0.69531-5.2266 2.0039-7.4727" fill-rule="evenodd"/>
  <path d="m389.99 373.28h-1.4062v25.457h1.4062c14.297 0 27.875-5.4219 38.242-15.281l-17.555-18.449c-5.6016 5.3398-12.949 8.2734-20.688 8.2734" fill-rule="evenodd"/>
  <path d="m390.01 313.23c8.1094 0 15.711 3.1914 21.406 8.9766l18.148-17.844c-10.512-10.691-24.555-16.578-39.539-16.586l-0.015626 25.453" fill-rule="evenodd"/>
  <path d="m441.53 322.66-23.633 9.4727c1.418 3.5273 2.1328 7.2617 2.1211 11.129 0 4.1914-0.84766 8.2578-2.5195 12.074l23.316 10.215c3.0898-7.0586 4.6602-14.559 4.6602-22.27 0.007813-7.1133-1.3164-14.051-3.9453-20.621" fill-rule="evenodd"/>
  <path d="m342.39 287.3-6.418 24.641c3.3008 0.85547 6.7227 1.2969 10.125 1.2969h0.066406 26.879v-25.453h-26.902c-1.6641-0.070312-2.5391-0.16016-3.75-0.48438" fill-rule="evenodd"/>
  <path d="m337.67 398.74h33.938v-25.457h-33.938z" fill-rule="evenodd"/>
  <path d="m136.45 256.84c-8.6367 0-15.645 7.0078-15.645 15.648 0 8.6367 7.0078 15.645 15.645 15.645s15.645-7.0078 15.645-15.645c0-8.6406-7.0078-15.648-15.645-15.648" fill-rule="evenodd"/>
  <path d="m114.11 46.062h6.3633v6.3672c0 7.0312 5.7031 12.727 12.727 12.727 7.0273 0 12.727-5.6953 12.727-12.727v-6.3672h6.3633c7.0273 0 12.73-5.6914 12.73-12.727 0-7.0234-5.7031-12.727-12.73-12.727h-6.3633v-6.3633c0-7.0273-5.6992-12.727-12.727-12.727-7.0234 0-12.727 5.6992-12.727 12.727v6.3633h-6.3633c-7.0273 0-12.727 5.7031-12.727 12.727 0 7.0352 5.6992 12.727 12.727 12.727" fill-rule="evenodd"/>
  <path d="m618.96 512.73h-6.3633v-6.3633c0-7.0234-5.7031-12.727-12.727-12.727-7.0273 0-12.727 5.7031-12.727 12.727v6.3633h-6.3633c-7.0273 0-12.73 5.7031-12.73 12.727 0 7.0352 5.7031 12.727 12.73 12.727h6.3633v6.3672c0 7.0312 5.6992 12.727 12.727 12.727 7.0234 0 12.727-5.6953 12.727-12.727v-6.3672h6.3633c7.0273 0 12.727-5.6914 12.727-12.727 0-7.0234-5.6992-12.727-12.727-12.727" fill-rule="evenodd"/>
  <use x="61.515625" y="687.273438" xlink:href="#r"/>
  <use x="92.648438" y="687.273438" xlink:href="#c"/>
  <use x="113.570312" y="687.273438" xlink:href="#e"/>
  <use x="142.34375" y="687.273438" xlink:href="#b"/>
  <use x="170.972656" y="687.273438" xlink:href="#a"/>
  <use x="191.253906" y="687.273438" xlink:href="#e"/>
  <use x="220.027344" y="687.273438" xlink:href="#j"/>
  <use x="265.164062" y="687.273438" xlink:href="#d"/>
  <use x="295.53125" y="687.273438" xlink:href="#i"/>
  <use x="337.957031" y="687.273438" xlink:href="#h"/>
  <use x="370.789062" y="687.273438" xlink:href="#g"/>
  <use x="400.992188" y="687.273438" xlink:href="#a"/>
  <use x="421.273438" y="687.273438" xlink:href="#f"/>
  <use x="450.417969" y="687.273438" xlink:href="#g"/>
  <use x="495.390625" y="687.273438" xlink:href="#q"/>
  <use x="527.726562" y="687.273438" xlink:href="#b"/>
  <use x="556.355469" y="687.273438" xlink:href="#c"/>
  <use x="577.277344" y="687.273438" xlink:href="#d"/>
  <use x="607.644531" y="687.273438" xlink:href="#b"/>
  <use x="636.273438" y="687.273438" xlink:href="#c"/>
  <use x="657.195313" y="687.273438" xlink:href="#f"/>
  <use x="686.339844" y="687.273438" xlink:href="#p"/>
  <use x="61.515625" y="729.695312" xlink:href="#o"/>
  <use x="189.015625" y="729.695312" xlink:href="#a"/>
  <use x="209.296875" y="729.695312" xlink:href="#n"/>
  <use x="283.039062" y="729.695312" xlink:href="#m"/>
  <use x="422.867188" y="729.695312" xlink:href="#l"/>
  <use x="504.027344" y="729.695312" xlink:href="#k"/>
  <use x="572.492188" y="729.695312" xlink:href="#a"/>
 </g>
</svg>
