<?xml version="1.0" encoding="UTF-8"?>
<svg width="700pt" height="700pt" version="1.1" viewBox="0 0 700 700" xmlns="http://www.w3.org/2000/svg">
 <g>
  <path d="m281.86 86.574h136.29c6.2539 0 12.031-3.3359 15.156-8.75 3.125-5.418 3.125-12.086 0-17.5-3.125-5.418-8.9023-8.75-15.156-8.75h-136.29c-6.2539 0-12.031 3.332-15.156 8.75-3.125 5.4141-3.125 12.082 0 17.5 3.125 5.4141 8.9023 8.75 15.156 8.75z" fill-rule="evenodd"/>
  <path d="m230.75 120.64c4.6406 0 9.0938-1.8438 12.375-5.125s5.125-7.7344 5.125-12.375v-68.145c0-6.2539-3.3359-12.031-8.75-15.156-5.4141-3.125-12.086-3.125-17.5 0-5.4141 3.125-8.75 8.9023-8.75 15.156v68.145c0 4.6406 1.8438 9.0938 5.125 12.375 3.2852 3.2812 7.7344 5.125 12.375 5.125z" fill-rule="evenodd"/>
  <path d="m469.25 120.64c4.6406 0 9.0898-1.8438 12.375-5.125 3.2812-3.2812 5.125-7.7344 5.125-12.375v-68.145c0-6.2539-3.3359-12.031-8.75-15.156-5.4141-3.125-12.086-3.125-17.5 0-5.4141 3.125-8.75 8.9023-8.75 15.156v68.145c0 4.6406 1.8438 9.0938 5.125 12.375s7.7344 5.125 12.375 5.125z" fill-rule="evenodd"/>
  <path d="m375.27 494.46h-229.69c-4.3945 0-8.6055-1.7461-11.711-4.8516-3.1055-3.1094-4.8477-7.3242-4.8438-11.719v-289.12h306.14c6.2539 0 12.031-3.3359 15.156-8.75 3.125-5.4141 3.125-12.086 0-17.5-3.125-5.4141-8.9023-8.75-15.156-8.75h-306.14v-50.629c-0.003906-4.3945 1.7383-8.6094 4.8438-11.719 3.1055-3.1055 7.3164-4.8516 11.711-4.8516h34.074c6.25 0 12.027-3.3359 15.152-8.75 3.1289-5.418 3.1289-12.086 0-17.5-3.125-5.418-8.9023-8.75-15.152-8.75h-34.074c-13.676 0-26.793 5.4336-36.461 15.105-9.668 9.6719-15.098 22.789-15.094 36.465v374.75c-0.003906 13.676 5.4258 26.793 15.094 36.465 9.668 9.6719 22.785 15.105 36.461 15.105h229.69c6.2539 0 12.031-3.332 15.156-8.75 3.125-5.4141 3.125-12.082 0-17.5-3.125-5.4141-8.9023-8.75-15.156-8.75z" fill-rule="evenodd"/>
  <path d="m503.32 153.77c-6.25 0-12.027 3.3359-15.156 8.75-3.125 5.4141-3.125 12.086 0 17.5 3.1289 5.4141 8.9062 8.75 15.156 8.75h67.656v124.48c0 6.2539 3.3359 12.031 8.75 15.156 5.4141 3.125 12.086 3.125 17.5 0 5.4141-3.125 8.75-8.9023 8.75-15.156v-210.11c0-13.676-5.4297-26.789-15.098-36.461s-22.781-15.105-36.457-15.109h-34.074c-6.25 0-12.027 3.332-15.152 8.75-3.1289 5.4141-3.1289 12.082 0 17.5 3.125 5.4141 8.9023 8.75 15.152 8.75h34.074c4.3945 0 8.6055 1.7461 11.711 4.8516 3.1055 3.1094 4.8477 7.3242 4.8438 11.719v50.629z" fill-rule="evenodd"/>
  <path d="m253.38 254.75c0 12.941-10.492 23.434-23.434 23.434-12.941 0-23.434-10.492-23.434-23.434s10.492-23.43 23.434-23.43c12.941 0 23.434 10.488 23.434 23.43"/>
  <path d="m253.38 336.79c0 12.941-10.492 23.43-23.434 23.43-12.941 0-23.434-10.488-23.434-23.43 0-12.941 10.492-23.434 23.434-23.434 12.941 0 23.434 10.492 23.434 23.434"/>
  <path d="m253.38 418.81c0 12.941-10.492 23.434-23.434 23.434-12.941 0-23.434-10.492-23.434-23.434s10.492-23.43 23.434-23.43c12.941 0 23.434 10.488 23.434 23.43"/>
  <path d="m337.77 254.75c0 12.941-10.488 23.434-23.43 23.434-12.941 0-23.434-10.492-23.434-23.434s10.492-23.43 23.434-23.43c12.941 0 23.43 10.488 23.43 23.43"/>
  <path d="m337.77 336.79c0 12.941-10.488 23.43-23.43 23.43-12.941 0-23.434-10.488-23.434-23.43 0-12.941 10.492-23.434 23.434-23.434 12.941 0 23.43 10.492 23.43 23.434"/>
  <path d="m337.77 418.81c0 12.941-10.488 23.434-23.43 23.434-12.941 0-23.434-10.492-23.434-23.434s10.492-23.43 23.434-23.43c12.941 0 23.43 10.488 23.43 23.43"/>
  <path d="m422.14 254.75c0 12.941-10.492 23.434-23.434 23.434s-23.434-10.492-23.434-23.434 10.492-23.43 23.434-23.43 23.434 10.488 23.434 23.43"/>
  <path d="m506.5 254.75c0 12.941-10.492 23.434-23.434 23.434-12.941 0-23.434-10.492-23.434-23.434s10.492-23.43 23.434-23.43c12.941 0 23.434 10.488 23.434 23.43"/>
  <path d="m600.86 512.63-43.891-43.891c18.117-26.422 21.781-60.164 9.7578-89.859-12.023-29.695-38.133-51.383-69.527-57.758s-63.895 3.4102-86.547 26.062-32.441 55.152-26.062 86.547c6.375 31.398 28.062 57.504 57.758 69.527 29.695 12.023 63.438 8.3594 89.859-9.7578l43.891 43.891c4.418 4.4219 10.863 6.1523 16.902 4.5352 6.043-1.6172 10.762-6.332 12.383-12.371 1.6211-6.0391-0.10547-12.484-4.5234-16.91zm-79.887-55.125c-11.34 11.336-26.719 17.703-42.754 17.699-16.035 0-31.41-6.3711-42.75-17.711-11.336-11.34-17.707-26.715-17.707-42.75 0-16.035 6.3711-31.414 17.707-42.75 11.34-11.34 26.715-17.711 42.75-17.715 16.035 0 31.414 6.3672 42.754 17.703 11.332 11.344 17.699 26.723 17.699 42.762 0 16.035-6.3672 31.418-17.699 42.762z" fill-rule="evenodd"/>
 </g>
</svg>
